<svg width="50" height="50" viewBox="0 0 50 50" fill="none" xmlns="http://www.w3.org/2000/svg">
<path d="M20.3125 0H23.4375V7.8125H20.3125V0ZM30.7625 10.7812L36.2406 5.30313L38.45 7.5125L32.9719 12.9906L30.7625 10.7812ZM35.9375 20.3125H43.75V23.4375H35.9375V20.3125ZM30.7625 32.9688L32.9719 30.7609L38.45 36.2391L36.2406 38.4484L30.7625 32.9688ZM20.3125 35.9375H23.4375V43.75H20.3125V35.9375ZM5.30313 36.2375L10.7812 30.7594L12.9906 32.9688L7.51406 38.4469L5.30313 36.2375ZM0 20.3125H7.8125V23.4375H0V20.3125ZM5.30469 7.5125L7.51406 5.30313L12.9922 10.7812L10.7812 12.9906L5.30469 7.5125ZM21.875 15.625C23.1111 15.625 24.3195 15.9916 25.3473 16.6783C26.3751 17.3651 27.1762 18.3412 27.6492 19.4832C28.1223 20.6253 28.2461 21.8819 28.0049 23.0943C27.7638 24.3067 27.1685 25.4203 26.2944 26.2944C25.4203 27.1685 24.3067 27.7638 23.0943 28.0049C21.8819 28.2461 20.6253 28.1223 19.4832 27.6492C18.3412 27.1762 17.3651 26.3751 16.6783 25.3473C15.9916 24.3195 15.625 23.1111 15.625 21.875C15.6271 20.218 16.2862 18.6295 17.4579 17.4579C18.6295 16.2862 20.218 15.6271 21.875 15.625V15.625ZM21.875 12.5C20.0208 12.5 18.2082 13.0498 16.6665 14.08C15.1248 15.1101 13.9232 16.5743 13.2136 18.2873C12.5041 20.0004 12.3184 21.8854 12.6801 23.704C13.0419 25.5225 13.9348 27.193 15.2459 28.5041C16.557 29.8152 18.2275 30.7081 20.046 31.0699C21.8646 31.4316 23.7496 31.2459 25.4627 30.5364C27.1757 29.8268 28.6399 28.6252 29.67 27.0835C30.7002 25.5418 31.25 23.7292 31.25 21.875C31.25 19.3886 30.2623 17.004 28.5041 15.2459C26.746 13.4877 24.3614 12.5 21.875 12.5Z" fill="#D9AB91"/>
</svg>
