<svg width="50" height="50" viewBox="0 0 50 50" fill="none" xmlns="http://www.w3.org/2000/svg">
<path fill-rule="evenodd" clip-rule="evenodd" d="M2.08331 5.9125C2.08331 4.89694 2.48674 3.92298 3.20485 3.20487C3.92296 2.48676 4.89692 2.08333 5.91248 2.08333H44.0833C44.5866 2.08251 45.0851 2.18096 45.5503 2.37306C46.0155 2.56515 46.4382 2.8471 46.7942 3.20278C47.1503 3.55846 47.4327 3.98088 47.6253 4.44585C47.8179 4.91083 47.9169 5.40922 47.9166 5.9125V44.0833C47.9172 44.5867 47.8185 45.0853 47.6262 45.5504C47.4338 46.0156 47.1517 46.4384 46.7958 46.7944C46.44 47.1504 46.0174 47.4328 45.5524 47.6254C45.0873 47.818 44.5888 47.9169 44.0854 47.9167H5.91248C5.40945 47.9167 4.91135 47.8176 4.44664 47.625C3.98193 47.4324 3.55971 47.1502 3.20411 46.7944C2.84852 46.4386 2.5665 46.0162 2.37419 45.5514C2.18188 45.0866 2.08304 44.5884 2.08331 44.0854V5.9125ZM20.225 19.5583H26.4312V22.675C27.3271 20.8833 29.6187 19.2708 33.0625 19.2708C39.6646 19.2708 41.2291 22.8396 41.2291 29.3875V41.5167H34.5479V30.8792C34.5479 27.15 33.6521 25.0458 31.3771 25.0458C28.2208 25.0458 26.9083 27.3146 26.9083 30.8792V41.5167H20.225V19.5583ZM8.76665 41.2312H15.45V19.2708H8.76665V41.2292V41.2312ZM16.4062 12.1083C16.4188 12.6806 16.317 13.2496 16.1067 13.7819C15.8965 14.3143 15.582 14.7992 15.1817 15.2084C14.7815 15.6176 14.3035 15.9427 13.7759 16.1646C13.2483 16.3865 12.6817 16.5009 12.1094 16.5009C11.537 16.5009 10.9704 16.3865 10.4428 16.1646C9.91519 15.9427 9.43725 15.6176 9.037 15.2084C8.63675 14.7992 8.32226 14.3143 8.11198 13.7819C7.9017 13.2496 7.79988 12.6806 7.81248 12.1083C7.83721 10.9851 8.30078 9.91623 9.10391 9.1306C9.90703 8.34496 10.9859 7.90504 12.1094 7.90504C13.2328 7.90504 14.3117 8.34496 15.1148 9.1306C15.9179 9.91623 16.3815 10.9851 16.4062 12.1083Z" fill="#0D0D0D"/>
</svg>
