<svg width="100" height="100" viewBox="0 0 100 100" fill="none" xmlns="http://www.w3.org/2000/svg">
<path d="M12.5 31.2958C10.583 32.5195 9.00532 34.2066 7.91292 36.2014C6.82051 38.1961 6.24858 40.4341 6.25 42.7083V67.7083C6.25 79.7917 16.0417 89.5833 28.125 89.5833H65.625C70.4167 89.5833 74.6292 87.0917 77.0375 83.3333H28.125C23.981 83.3333 20.0067 81.6871 17.0765 78.7569C14.1462 75.8266 12.5 71.8523 12.5 67.7083V31.2958ZM16.6667 33.7917V65.625C16.6664 69.0839 17.9898 72.4118 20.3653 74.926C22.7408 77.4401 25.9883 78.95 29.4417 79.1458L30.2083 79.1667H78.125C81.5839 79.1669 84.9118 77.8435 87.426 75.468C89.9401 73.0925 91.45 69.845 91.6458 66.3917L91.6667 65.625V33.7917L55.625 52.7667C55.1755 53.0038 54.6749 53.1278 54.1667 53.1278C53.6584 53.1278 53.1578 53.0038 52.7083 52.7667L16.6667 33.7917ZM78.125 16.6667H30.2083C27.1847 16.6665 24.2479 17.6779 21.8657 19.54C19.4834 21.402 17.7926 24.0075 17.0625 26.9417L54.1667 46.4667L91.2708 26.9417C90.5723 24.1391 88.9965 21.633 86.7733 19.7891C84.5501 17.9452 81.7959 16.8599 78.9125 16.6917L78.125 16.6667Z" fill="#0D0D0D"/>
</svg>
